<svg width="16" height="15" viewBox="0 0 16 15" fill="none" xmlns="http://www.w3.org/2000/svg">
<g clip-path="url(#clip0_45927_1098)">
<path d="M15.3 5.1774L11.8 5.3774L8.6 0.477399C8.5 0.277399 8.2 0.177399 8 0.177399C7.8 0.177399 7.5 0.277399 7.4 0.477399L4.2 5.3774H0.7C0.3 5.3774 0 5.6774 0 6.0774C0 6.1774 0 6.1774 0 6.2774L1.9 13.0774C2.1 13.7774 2.6 14.1774 3.3 14.1774H12.7C13.4 14.1774 13.9 13.7774 14.1 13.0774L16 6.1774C16 6.0774 16 6.0774 16 5.9774C16 5.5774 15.7 5.1774 15.3 5.1774ZM8 2.0774L10.2 5.2774H5.9L8 2.0774Z" fill="black"/>
</g>
<defs>
<clipPath id="clip0_45927_1098">
<rect width="16" height="14" fill="white" transform="translate(0 0.177399)"/>
</clipPath>
</defs>
</svg>
