<svg xmlns="http://www.w3.org/2000/svg" width="97" height="55" fill="none" viewBox="0 0 97 55"><path fill="#363636" stroke="#000" d="m62.98.52-.04-.5.04.5h-.04l-.12.02-.48.04-1.82.15a25124.01 25124.01 0 0 0-26.47 2.2C19.4 4.16 4.4 5.43 2.91 5.64c-1.23.17-1.83 1.05-2.14 2A6 6 0 0 0 .5 9.48v.05H0h.5v36.28c0 1.74.6 2.52 1.1 2.88a2.06 2.06 0 0 0 1 .37h.04l16.2 1.39 7.95-11.43h.01a4.02 4.02 0 0 1 .2-.3c.14-.19.34-.44.59-.69.47-.48 1.22-1.06 2.13-1.06.91 0 1.65.6 2.1 1.1a5.97 5.97 0 0 1 .7.92l.03.04.02.03 8.92 13.32.59.06a1305.73 1305.73 0 0 0 9.08.87c5.19.48 10.79.95 12.57.95L62.98.52Zm0 0H63m-.02 0H63m4.17 49.22h-.5v.06a5.57 5.57 0 0 1-.03.68 7.32 7.32 0 0 1-.3 1.62 3.63 3.63 0 0 1-.89 1.52c-.4.38-.94.64-1.72.64l3.44-4.52Zm0 0h-.5V4.47c0-1.2-.25-2.02-.59-2.58-.34-.56-.78-.9-1.23-1.1A3.58 3.58 0 0 0 63 .52m4.16 49.22L63.01.52m-.01 0H63m-.01 0H63m23.55 16.62h-.09A2.85 2.85 0 0 0 83.63 20v12.64a2.85 2.85 0 0 0 2.84 2.87h.04l.05-.01 7.73-1.46v7.31c0 1.07-.41 2.42-1.13 3.6a5.64 5.64 0 0 1-2.72 2.5l-21.55 6.54c.69-1.14.9-2.56.9-4.21V4.58c0-1.19-.06-2.03-.38-2.77-.1-.23-.22-.44-.36-.65l21.4 6.07c1.22.41 2.18.86 2.84 1.46.64.57 1 1.3 1 2.33v7.59l-7.73-1.47Zm-.35 4.25c0-.74.57-1.33 1.28-1.35L95 21.46c.5.17.86.35 1.1.56a1 1 0 0 1 .35.81v7c0 .37-.11.6-.31.78-.23.2-.6.38-1.14.58l-7.51 1.42a1.34 1.34 0 0 1-1.28-1.36V21.4ZM5.79 26.92c0 2.92.77 5.58 2.04 7.54 1.27 1.94 3.08 3.23 5.15 3.23 2.08 0 3.89-1.29 5.16-3.23a13.96 13.96 0 0 0 2.04-7.54c0-2.92-.77-5.59-2.04-7.54-1.27-1.95-3.08-3.24-5.16-3.24-2.07 0-3.88 1.3-5.15 3.24a13.96 13.96 0 0 0-2.04 7.54Zm34.4 0c0 3.32.98 6.35 2.58 8.56 1.6 2.21 3.84 3.64 6.37 3.64 2.53 0 4.78-1.43 6.38-3.64a14.74 14.74 0 0 0 2.56-8.56c0-3.33-.97-6.36-2.56-8.57-1.6-2.21-3.85-3.64-6.38-3.64s-4.78 1.43-6.37 3.64a14.74 14.74 0 0 0-2.57 8.57Z"/></svg>