<svg xmlns="http://www.w3.org/2000/svg" width="145" height="37" fill="none" viewBox="0 0 145 37"><path fill="#000" d="M27.2.2v35.3h-7.6V33a9.5 9.5 0 0 1-7.5 3C5.5 36.2 0 30.5 0 23 0 15.4 5.5 9.6 12.1 9.6c3.4 0 6 1.2 7.5 3V.3h7.6Zm-7.6 22.7c0-3.8-2.5-6.2-6-6.2s-6 2.4-6 6.2c0 3.8 2.5 6.2 6 6.2 3.5-.1 6-2.4 6-6.2Zm24.1 6.5c2.1 0 3.8-.8 4.8-2l6.1 3.6a13 13 0 0 1-11 5.2c-8.6 0-14-5.8-14-13.3C29.6 15.4 35 9.6 43 9.6c7.4 0 12.8 5.7 12.8 13.3 0 1 0 2-.3 3H37.6c1 2.6 3.3 3.5 6.1 3.5Zm4.6-9.1c-.8-3-3-4-5.4-4-2.9 0-4.8 1.4-5.5 4h11Zm33.9-10-9.4 25.2h-8.6L55 10.3h8.4l5.3 16 5.4-16h8.2Zm1.3 0H91v25.2h-7.6V10.3Zm10.2 12.6A13 13 0 0 1 107 9.6a13 13 0 0 1 11.4 6.5l-6.6 3.8c-1-1.8-2.7-2.8-5-2.8a5.5 5.5 0 0 0-5.6 5.8c0 3.5 2.4 5.8 5.7 5.8 2.2 0 4-1.1 4.9-2.8l6.6 3.8a12.8 12.8 0 0 1-11.4 6.5 13 13 0 0 1-13.4-13.3Zm39.2 6.5c2.1 0 3.8-.8 4.8-2l6.1 3.6a13 13 0 0 1-11 5.2c-8.6 0-14-5.8-14-13.3a13 13 0 0 1 13.4-13.3c7.4 0 12.8 5.7 12.8 13.3l-.3 3h-18c1 2.6 3.4 3.5 6.2 3.5Zm4.7-9.1c-.8-3-3.1-4-5.4-4-3 0-4.8 1.4-5.5 4h10.9Z"/><path fill="#510094" d="M83.5.2v10L91 .3h-7.6Z"/></svg>